HIERARCHY
ROOT Hips
{
	OFFSET 0.000000 96.379402 3.985525
	CHANNELS 6 Xposition Yposition Zposition Xrotation Yrotation Zrotation
	JOINT Spine
	{
		OFFSET 0.000000 9.226318 1.577133
		CHANNELS 6 Xposition Yposition Zposition Xrotation Yrotation Zrotation
		JOINT Spine1
		{
			OFFSET 0.000000 16.254028 -0.165605
			CHANNELS 6 Xposition Yposition Zposition Xrotation Yrotation Zrotation
			JOINT Spine2
			{
				OFFSET 0.000000 13.639641 -1.292305
				CHANNELS 6 Xposition Yposition Zposition Xrotation Yrotation Zrotation
				JOINT Neck
				{
					OFFSET 0.000000 13.877457 -4.354187
					CHANNELS 6 Xposition Yposition Zposition Xrotation Yrotation Zrotation
					JOINT Neck1
					{
						OFFSET 0.000000 4.340027 0.926895
						CHANNELS 6 Xposition Yposition Zposition Xrotation Yrotation Zrotation
						JOINT Head
						{
							OFFSET 0.000000 4.026611 0.858520
							CHANNELS 6 Xposition Yposition Zposition Xrotation Yrotation Zrotation
							End Site
							{
								OFFSET 0.000000 4.117111 0.000000
							}
						}
					}
				}
				JOINT LeftShoulder
				{
					OFFSET 6.144226 10.187027 -3.793244
					CHANNELS 6 Xposition Yposition Zposition Xrotation Yrotation Zrotation
					JOINT LeftArm
					{
						OFFSET 12.319092 -1.112976 -1.793457
						CHANNELS 6 Xposition Yposition Zposition Xrotation Yrotation Zrotation
						JOINT LeftForeArm
						{
							OFFSET 27.687012 0.000000 0.000000
							CHANNELS 3 Xrotation Yrotation Zrotation
							JOINT LeftHand
							{
								OFFSET 27.873779 0.000000 0.000000
								CHANNELS 3 Xrotation Yrotation Zrotation
								JOINT LeftHandThumb1
								{
									OFFSET 2.378510 -1.002899 2.620936
									CHANNELS 6 Xposition Yposition Zposition Xrotation Yrotation Zrotation
									JOINT LeftHandThumb2
									{
										OFFSET 3.362373 -1.002914 2.839772
										CHANNELS 6 Xposition Yposition Zposition Xrotation Yrotation Zrotation
										JOINT LeftHandThumb3
										{
											OFFSET 4.501793 -1.344498 2.178267
											CHANNELS 6 Xposition Yposition Zposition Xrotation Yrotation Zrotation
											End Site
											{
												OFFSET 5.178680 0.000000 0.000000
											}
										}
									}
								}
								JOINT LeftHandMiddle1
								{
									OFFSET 10.463905 0.614746 0.429787
									CHANNELS 6 Xposition Yposition Zposition Xrotation Yrotation Zrotation
									JOINT LeftHandMiddle2
									{
										OFFSET 5.792099 0.000000 0.000000
										CHANNELS 3 Xrotation Yrotation Zrotation
										JOINT LeftHandMiddle3
										{
											OFFSET 3.713173 0.000000 0.000000
											CHANNELS 3 Xrotation Yrotation Zrotation
											End Site
											{
												OFFSET 3.713173 0.000000 0.000000
											}
										}
									}
								}
								JOINT LeftHandIndex1
								{
									OFFSET 10.394539 0.614746 2.705492
									CHANNELS 6 Xposition Yposition Zposition Xrotation Yrotation Zrotation
									JOINT LeftHandIndex2
									{
										OFFSET 5.549286 0.000000 0.000000
										CHANNELS 3 Xrotation Yrotation Zrotation
										JOINT LeftHandIndex3
										{
											OFFSET 3.391129 0.000000 0.000000
											CHANNELS 3 Xrotation Yrotation Zrotation
											End Site
											{
												OFFSET 3.391121 0.000000 0.000000
											}
										}
									}
								}
								JOINT LeftHandRing1
								{
									OFFSET 10.325165 0.321121 -1.875542
									CHANNELS 6 Xposition Yposition Zposition Xrotation Yrotation Zrotation
									JOINT LeftHandRing2
									{
										OFFSET 5.445221 0.000000 0.000000
										CHANNELS 3 Xrotation Yrotation Zrotation
										JOINT LeftHandRing3
										{
											OFFSET 3.713173 0.000000 0.000000
											CHANNELS 3 Xrotation Yrotation Zrotation
											End Site
											{
												OFFSET 3.713173 0.000000 0.000000
											}
										}
									}
								}
								JOINT LeftHandPinky1
								{
									OFFSET 10.012993 -0.078354 -3.967141
									CHANNELS 6 Xposition Yposition Zposition Xrotation Yrotation Zrotation
									JOINT LeftHandPinky2
									{
										OFFSET 3.676254 0.000000 0.000000
										CHANNELS 3 Xrotation Yrotation Zrotation
										JOINT LeftHandPinky3
										{
											OFFSET 2.811340 0.000000 0.000000
											CHANNELS 3 Xrotation Yrotation Zrotation
											End Site
											{
												OFFSET 2.811340 0.000000 0.000000
											}
										}
									}
								}
							}
						}
					}
				}
				JOINT RightShoulder
				{
					OFFSET -6.140198 10.187027 -3.793244
					CHANNELS 6 Xposition Yposition Zposition Xrotation Yrotation Zrotation
					JOINT RightArm
					{
						OFFSET -12.323120 -1.112976 -1.793457
						CHANNELS 6 Xposition Yposition Zposition Xrotation Yrotation Zrotation
						JOINT RightForeArm
						{
							OFFSET -27.687012 0.000000 0.000000
							CHANNELS 3 Xrotation Yrotation Zrotation
							JOINT RightHand
							{
								OFFSET -27.873779 0.000000 0.000000
								CHANNELS 3 Xrotation Yrotation Zrotation
								JOINT RightHandThumb1
								{
									OFFSET -2.517769 -0.936676 2.513668
									CHANNELS 6 Xposition Yposition Zposition Xrotation Yrotation Zrotation
									JOINT RightHandThumb2
									{
										OFFSET -3.263786 -1.086960 2.966880
										CHANNELS 6 Xposition Yposition Zposition Xrotation Yrotation Zrotation
										JOINT RightHandThumb3
										{
											OFFSET -4.416527 -1.370270 2.135024
											CHANNELS 6 Xposition Yposition Zposition Xrotation Yrotation Zrotation
											End Site
											{
												OFFSET -5.093292 0.000000 0.000000
											}
										}
									}
								}
								JOINT RightHandIndex1
								{
									OFFSET -10.466507 0.489578 2.711963
									CHANNELS 6 Xposition Yposition Zposition Xrotation Yrotation Zrotation
									JOINT RightHandIndex2
									{
										OFFSET -5.376770 0.000000 0.000000
										CHANNELS 3 Xrotation Yrotation Zrotation
										JOINT RightHandIndex3
										{
											OFFSET -3.385460 0.000000 -0.000000
											CHANNELS 3 Xrotation Yrotation Zrotation
											End Site
											{
												OFFSET -3.385475 0.000000 0.000000
											}
										}
									}
								}
								JOINT RightHandMiddle1
								{
									OFFSET -10.759605 0.489578 0.427799
									CHANNELS 6 Xposition Yposition Zposition Xrotation Yrotation Zrotation
									JOINT RightHandMiddle2
									{
										OFFSET -5.616760 0.000000 0.000000
										CHANNELS 3 Xrotation Yrotation Zrotation
										JOINT RightHandMiddle3
										{
											OFFSET -3.736366 0.000000 0.000000
											CHANNELS 3 Xrotation Yrotation Zrotation
											End Site
											{
												OFFSET -3.736351 0.000000 0.000000
											}
										}
									}
								}
								JOINT RightHandRing1
								{
									OFFSET -10.470215 0.387863 -1.936281
									CHANNELS 6 Xposition Yposition Zposition Xrotation Yrotation Zrotation
									JOINT RightHandRing2
									{
										OFFSET -5.401276 0.000000 0.000000
										CHANNELS 3 Xrotation Yrotation Zrotation
										JOINT RightHandRing3
										{
											OFFSET -3.391602 0.000000 0.000000
											CHANNELS 3 Xrotation Yrotation Zrotation
											End Site
											{
												OFFSET -3.391594 0.000000 0.000000
											}
										}
									}
								}
								JOINT RightHandPinky1
								{
									OFFSET -9.971458 -0.119156 -3.954005
									CHANNELS 6 Xposition Yposition Zposition Xrotation Yrotation Zrotation
									JOINT RightHandPinky2
									{
										OFFSET -3.652756 0.000000 0.000000
										CHANNELS 3 Xrotation Yrotation Zrotation
										JOINT RightHandPinky3
										{
											OFFSET -2.782043 0.000000 0.000000
											CHANNELS 3 Xrotation Yrotation Zrotation
											End Site
											{
												OFFSET -2.782036 0.000000 0.000000
											}
										}
									}
								}
							}
						}
					}
				}
			}
		}
	}
	JOINT LeftUpLeg
	{
		OFFSET 9.633789 -3.273254 -0.000001
		CHANNELS 6 Xposition Yposition Zposition Xrotation Yrotation Zrotation
		JOINT LeftLeg
		{
			OFFSET 0.000000 -41.730000 -1.729965
			CHANNELS 6 Xposition Yposition Zposition Xrotation Yrotation Zrotation
			JOINT LeftFoot
			{
				OFFSET 0.012605 -39.189999 -0.847687
				CHANNELS 6 Xposition Yposition Zposition Xrotation Yrotation Zrotation
				JOINT LeftToeBase
				{
					OFFSET -0.183287 -12.193086 8.282264
					CHANNELS 6 Xposition Yposition Zposition Xrotation Yrotation Zrotation
					End Site
					{
						OFFSET 0.000000 -14.741127 0.000000
					}
				}
			}
		}
	}
	JOINT RightUpLeg
	{
		OFFSET -9.633789 -3.273254 -0.000001
		CHANNELS 6 Xposition Yposition Zposition Xrotation Yrotation Zrotation
		JOINT RightLeg
		{
			OFFSET 0.000000 -41.730000 -1.729965
			CHANNELS 6 Xposition Yposition Zposition Xrotation Yrotation Zrotation
			JOINT RightFoot
			{
				OFFSET 0.012607 -39.189999 -0.847687
				CHANNELS 6 Xposition Yposition Zposition Xrotation Yrotation Zrotation
				JOINT RightToeBase
				{
					OFFSET -0.183310 -12.193086 8.282264
					CHANNELS 6 Xposition Yposition Zposition Xrotation Yrotation Zrotation
					End Site
					{
						OFFSET 0.000000 -14.741127 0.000000
					}
				}
			}
		}
	}
}
MOTION
Frames: 4
Frame Time: 0.041667
3.265000 94.089996 3.170000 -0.130408 11.100697 2.504142 0.000000 9.226307 1.577100 1.017873 -0.556288 -4.860841 0.000001 16.254011 -0.165599 2.748671 -0.211855 -1.368767 -0.000000 13.639592 -1.292300 2.758057 -0.263918 -1.358617 -0.000000 13.877405 -4.354197 12.129105 -6.361691 7.502746 -0.000000 4.340003 0.926902 2.155390 -6.346271 3.333792 -0.000000 4.026627 0.858506 0.000002 0.000000 0.000000 6.144201 10.187006 -3.793199 0.654795 8.131294 -1.187169 12.319105 -1.112993 -1.793506 6.848107 12.279855 -85.078428 2.716770 -15.016751 9.317313 36.402996 -8.914994 -14.515914 2.378504 -1.002880 2.620902 6.281969 5.251154 -5.523933 3.362405 -1.002895 2.839799 -13.855711 -11.260814 -5.137556 4.501787 -1.344501 2.178300 -12.731854 -2.344962 1.356550 10.463900 0.614813 0.429801 0.169599 -1.954291 3.236698 0.000001 -0.007800 -0.075900 0.000001 -0.007800 -0.075900 10.394492 0.614813 2.705501 -0.187132 -3.403082 3.506097 -0.000000 -0.001099 -0.011100 0.000001 -0.001100 -0.011100 10.325192 0.321111 -1.875499 0.464435 -0.707677 2.934047 -0.000200 -0.051800 -0.503700 -0.000199 -0.051800 -0.503700 10.013000 -0.078274 -3.967101 0.622100 -0.039598 3.052626 -0.004601 -0.233999 -2.278019 -0.004698 -0.234000 -2.278019 -6.140199 10.187008 -3.793199 1.381551 -23.063891 -12.886975 -12.323102 -1.112973 -1.793501 -14.814593 19.525610 -14.972227 16.847782 0.728063 -0.317058 26.239171 11.027762 24.815527 -2.517800 -0.936706 2.513686 7.181841 -7.351807 5.253854 -3.263813 -1.087008 2.966892 -14.317082 12.783527 6.384098 -4.416523 -1.370282 2.134998 -12.506648 2.172639 -0.859899 -10.466490 0.489574 2.711992 -0.218378 3.329571 -2.726818 -0.000000 0.000900 0.011102 0.000004 0.000899 0.011211 -10.759601 0.489573 0.427792 0.157381 1.879975 -2.487861 0.000002 0.006185 0.075989 0.000002 0.006184 0.075988 -10.470199 0.387912 -1.936312 0.467926 0.630888 -2.210852 -0.000200 0.041209 0.504488 -0.000201 0.041208 0.504487 -9.971498 -0.119116 -3.954007 0.634097 -0.032498 -2.343841 -0.003702 0.186200 2.282017 -0.003699 0.186201 2.282016 9.633799 -3.273297 -0.000000 -6.944935 9.074620 -0.001957 0.000002 -41.730003 -1.730002 19.886379 -4.427060 -3.111888 0.012601 -39.189999 -0.847700 -11.449284 -12.780266 -3.523993 -0.183300 -12.193101 8.282300 -0.000000 -0.000001 0.000001 -9.633800 -3.273301 0.000001 -16.605440 1.786850 -2.960188 0.000000 -41.730003 -1.730004 39.878350 -5.769292 -1.432481 0.012600 -39.190002 -0.847700 -8.500568 -7.667142 4.988883 -0.183300 -12.193100 8.282300 -0.000001 0.000000 0.000000 
3.190000 94.089996 3.220000 -0.093641 11.076186 2.537192 0.000000 9.226311 1.577100 1.003448 -0.557015 -4.903044 0.000001 16.254013 -0.165600 2.752219 -0.216950 -1.464273 0.000001 13.639575 -1.292299 2.762131 -0.270885 -1.453646 -0.000001 13.877397 -4.354198 12.286761 -6.404359 7.724653 -0.000000 4.339990 0.926903 2.052414 -6.303487 3.296940 0.000000 4.026627 0.858507 0.000001 -0.000000 0.000000 6.144199 10.186996 -3.793201 0.681633 8.181429 -0.896005 12.319107 -1.113008 -1.793499 7.108852 12.473636 -85.298298 2.063007 -15.009009 9.137560 35.935814 -8.817543 -14.566762 2.378489 -1.002895 2.620901 6.281970 5.251154 -5.523933 3.362401 -1.002895 2.839798 -13.855710 -11.260813 -5.137558 4.501802 -1.344485 2.178298 -12.731854 -2.344962 1.356550 10.463882 0.614798 0.429801 0.169601 -1.954292 3.236698 0.000000 -0.007800 -0.075900 0.000000 -0.007800 -0.075900 10.394494 0.614813 2.705501 -0.187130 -3.403083 3.506097 0.000001 -0.001100 -0.011100 0.000001 -0.001100 -0.011100 10.325187 0.321111 -1.875500 0.464435 -0.707677 2.934047 -0.000200 -0.051800 -0.503700 -0.000199 -0.051800 -0.503700 10.012983 -0.078304 -3.967099 0.622101 -0.039598 3.052627 -0.004600 -0.234000 -2.278019 -0.004699 -0.234000 -2.278019 -6.140198 10.187012 -3.793200 1.305653 -23.975376 -13.679191 -12.323104 -1.112972 -1.793496 -14.302057 21.795996 -17.215789 14.476521 0.102629 -0.036694 22.605227 11.388582 24.591283 -2.517810 -0.936689 2.513713 7.181853 -7.351809 5.253856 -3.263808 -1.086977 2.966886 -14.317082 12.783528 6.384096 -4.416513 -1.370298 2.135000 -12.506642 2.172638 -0.859900 -10.466496 0.489618 2.712001 -0.218375 3.329571 -2.726819 0.000001 0.000901 0.011100 0.000005 0.000900 0.011210 -10.759591 0.489587 0.427810 0.157387 1.879976 -2.487862 0.000003 0.006185 0.075989 -0.000001 0.006186 0.075991 -10.470196 0.387894 -1.936287 0.467932 0.630888 -2.210853 -0.000199 0.041209 0.504485 -0.000196 0.041210 0.504486 -9.971499 -0.119087 -3.953982 0.634103 -0.032498 -2.343841 -0.003699 0.186201 2.282015 -0.003700 0.186201 2.282017 9.633799 -3.273299 0.000000 -6.831546 9.119294 -0.007435 -0.000002 -41.730007 -1.730001 19.746823 -4.378688 -3.104286 0.012600 -39.189999 -0.847699 -11.397011 -12.778448 -3.600403 -0.183301 -12.193100 8.282300 0.000000 -0.000000 -0.000000 -9.633801 -3.273305 0.000001 -16.641937 1.786733 -2.942130 0.000000 -41.730000 -1.730004 39.886426 -5.765853 -1.430898 0.012601 -39.190002 -0.847700 -8.440821 -7.658543 4.980446 -0.183299 -12.193099 8.282299 -0.000001 -0.000000 0.000000 
3.115000 94.089996 3.272500 -0.031519 11.030569 2.590897 -0.000000 9.226300 1.577100 0.984144 -0.548071 -4.943561 -0.000000 16.254007 -0.165599 2.747412 -0.195528 -1.557950 -0.000000 13.639617 -1.292300 2.757498 -0.250711 -1.548347 0.000002 13.877390 -4.354196 12.376567 -6.451255 7.912062 -0.000000 4.339993 0.926906 2.003977 -6.279063 3.295691 -0.000000 4.026627 0.858492 -0.000000 -0.000000 0.000000 6.144200 10.187028 -3.793199 0.711914 8.264362 -0.598538 12.319102 -1.113012 -1.793501 7.397318 12.720476 -85.545524 1.461292 -14.964533 8.974419 35.571646 -8.829728 -14.451502 2.378485 -1.002910 2.620900 6.281970 5.251154 -5.523934 3.362396 -1.002895 2.839797 -13.855709 -11.260813 -5.137556 4.501805 -1.344514 2.178301 -12.731856 -2.344962 1.356552 10.463900 0.614797 0.429800 0.169600 -1.954292 3.236698 -0.000000 -0.007800 -0.075900 -0.000001 -0.007800 -0.075900 10.394502 0.614798 2.705501 -0.187131 -3.403083 3.506097 0.000000 -0.001100 -0.011100 0.000000 -0.001100 -0.011100 10.325196 0.321097 -1.875502 0.464436 -0.707677 2.934046 -0.000200 -0.051800 -0.503700 -0.000200 -0.051800 -0.503700 10.012993 -0.078304 -3.967100 0.622101 -0.039598 3.052626 -0.004600 -0.234000 -2.278019 -0.004700 -0.234000 -2.278020 -6.140200 10.187016 -3.793199 1.224728 -24.814858 -14.393229 -12.323092 -1.112993 -1.793498 -13.737954 23.704004 -19.564430 12.124752 -0.229030 0.066092 19.153686 11.467448 24.416473 -2.517792 -0.936702 2.513705 7.181849 -7.351806 5.253855 -3.263827 -1.086980 2.966907 -14.317078 12.783529 6.384098 -4.416509 -1.370251 2.134995 -12.506640 2.172640 -0.859898 -10.466502 0.489606 2.711990 -0.218375 3.329572 -2.726819 0.000001 0.000900 0.011103 0.000002 0.000901 0.011212 -10.759601 0.489592 0.427798 0.157384 1.879976 -2.487861 0.000002 0.006184 0.075988 0.000003 0.006184 0.075989 -10.470191 0.387897 -1.936300 0.467930 0.630887 -2.210855 -0.000198 0.041210 0.504487 -0.000199 0.041210 0.504486 -9.971506 -0.119082 -3.954014 0.634100 -0.032499 -2.343841 -0.003698 0.186201 2.282019 -0.003697 0.186201 2.282011 9.633801 -3.273298 0.000000 -6.742761 9.158600 -0.026715 0.000001 -41.730007 -1.730000 19.576475 -4.344720 -3.091138 0.012602 -39.190002 -0.847700 -11.344677 -12.789430 -3.681654 -0.183301 -12.193099 8.282300 0.000000 -0.000000 0.000000 -9.633801 -3.273292 0.000002 -16.679066 1.750102 -2.957913 0.000000 -41.730007 -1.730002 39.865693 -5.775661 -1.407541 0.012600 -39.189999 -0.847702 -8.424145 -7.637896 4.954022 -0.183300 -12.193100 8.282301 -0.000001 0.000000 -0.000000 
3.035000 94.089996 3.335000 0.048674 10.962886 2.657500 -0.000000 9.226296 1.577100 0.956989 -0.528178 -4.990325 0.000000 16.254015 -0.165599 2.733701 -0.150581 -1.664222 0.000000 13.639591 -1.292298 2.743560 -0.206916 -1.656326 0.000001 13.877386 -4.354198 12.405798 -6.502226 8.078736 -0.000001 4.340003 0.926901 2.023814 -6.270625 3.363592 -0.000001 4.026611 0.858505 -0.000001 -0.000001 0.000000 6.144200 10.187002 -3.793201 0.739600 8.338655 -0.318564 12.319105 -1.112993 -1.793501 7.725435 12.999195 -85.819490 0.776233 -14.909605 8.787340 35.157931 -8.882315 -14.192788 2.378508 -1.002896 2.620899 6.281970 5.251153 -5.523934 3.362396 -1.002892 2.839798 -13.855711 -11.260813 -5.137556 4.501793 -1.344499 2.178298 -12.731853 -2.344963 1.356550 10.463907 0.614813 0.429800 0.169600 -1.954292 3.236697 0.000000 -0.007800 -0.075900 0.000000 -0.007800 -0.075900 10.394503 0.614813 2.705498 -0.187131 -3.403083 3.506096 0.000000 -0.001100 -0.011100 -0.000000 -0.001099 -0.011100 10.325204 0.321111 -1.875502 0.464436 -0.707677 2.934046 -0.000200 -0.051800 -0.503700 -0.000200 -0.051800 -0.503700 10.012993 -0.078289 -3.967100 0.622100 -0.039598 3.052626 -0.004599 -0.234000 -2.278019 -0.004699 -0.234000 -2.278020 -6.140195 10.186992 -3.793200 1.138507 -25.593275 -15.063861 -12.323108 -1.112985 -1.793500 -13.551643 25.543663 -21.835924 10.205850 -0.357181 0.086740 16.703233 11.296885 23.800824 -2.517787 -0.936708 2.513696 7.181847 -7.351808 5.253856 -3.263825 -1.086977 2.966884 -14.317086 12.783525 6.384096 -4.416492 -1.370300 2.135002 -12.506643 2.172639 -0.859896 -10.466491 0.489614 2.711986 -0.218378 3.329570 -2.726815 -0.000000 0.000898 0.011102 -0.000001 0.000899 0.011211 -10.759598 0.489603 0.427785 0.157384 1.879975 -2.487863 -0.000000 0.006184 0.075989 -0.000000 0.006185 0.075990 -10.470192 0.387913 -1.936314 0.467930 0.630887 -2.210852 -0.000204 0.041208 0.504490 -0.000202 0.041209 0.504488 -9.971499 -0.119101 -3.954017 0.634100 -0.032499 -2.343841 -0.003703 0.186200 2.282015 -0.003704 0.186200 2.282016 9.633798 -3.273300 -0.000000 -6.671066 9.185010 -0.071982 -0.000000 -41.730011 -1.729999 19.379490 -4.290996 -3.070104 0.012601 -39.189999 -0.847700 -11.299342 -12.773631 -3.763140 -0.183300 -12.193102 8.282300 -0.000000 0.000000 -0.000000 -9.633801 -3.273310 0.000000 -16.717807 1.742404 -2.984411 0.000001 -41.730000 -1.730000 39.822977 -5.748178 -1.401599 0.012600 -39.190002 -0.847699 -8.436701 -7.604304 4.908879 -0.183300 -12.193099 8.282300 -0.000001 0.000000 -0.000000 
